<?xml version="1.0" standalone="no"?>
<!DOCTYPE svg PUBLIC "-//W3C//DTD SVG 20010904//EN"
 "http://www.w3.org/TR/2001/REC-SVG-20010904/DTD/svg10.dtd">
<svg version="1.0" xmlns="http://www.w3.org/2000/svg"
 width="225.000000pt" height="225.000000pt" viewBox="0 0 225.000000 225.000000"
 preserveAspectRatio="xMidYMid meet">

<g transform="translate(0.000000,225.000000) scale(0.100000,-0.100000)"
fill="#000000" stroke="none">
<path d="M21 2074 c-43 -54 -14 -90 93 -119 40 -11 66 -24 69 -34 107 -377
343 -1174 354 -1194 8 -16 30 -46 50 -68 l35 -39 -32 -37 c-44 -50 -60 -92
-60 -159 0 -87 18 -133 76 -191 52 -52 120 -83 184 -83 92 0 198 69 241 157
26 54 29 150 6 206 l-16 37 255 0 c139 0 254 -2 254 -4 0 -2 -7 -20 -15 -39
-24 -58 -19 -144 11 -205 99 -199 372 -198 476 2 16 30 22 59 22 111 0 62 -4
78 -33 130 l-33 59 30 25 c62 53 77 94 166 441 102 403 105 422 78 483 -25 56
-87 104 -145 112 -23 3 -404 30 -847 60 -443 30 -824 58 -847 61 l-43 5 -36
114 c-19 63 -41 118 -47 123 -14 11 -196 72 -214 72 -6 0 -21 -12 -32 -26z
m978 -474 c306 -22 675 -49 820 -60 285 -21 301 -25 301 -79 1 -48 -163 -673
-185 -705 -42 -63 -71 -73 -227 -81 -79 -4 -321 -5 -539 -3 l-395 3 -42 27
c-22 15 -52 47 -65 70 -21 36 -257 824 -257 857 0 14 -43 17 589 -29z m-149
-1065 c49 -25 70 -62 70 -121 0 -42 -5 -59 -26 -83 -34 -41 -91 -58 -142 -43
-60 18 -85 52 -90 120 -4 52 -1 61 24 91 15 18 37 37 48 41 33 14 84 11 116
-5z m973 1 c85 -35 99 -159 26 -220 -88 -74 -219 -15 -219 98 0 53 17 85 59
113 39 26 86 29 134 9z"/>
</g>
</svg>
